<svg width="66.03mm" height="43.02mm" viewBox="0 0 66.03 43.02" xmlns="http://www.w3.org/2000/svg" version="1.1" preserveAspectRatio="xMidYMid meet"><g id="svgGroup" stroke-linecap="round" fill-rule="evenodd" font-size="9pt" stroke="#000" stroke-width="0.25mm" fill="none" style="stroke:#000;stroke-width:0.25mm;fill:none"><path d="M 7.01 40.02 L 13 40.02 L 13 43.02 L 20.01 43.02 L 20.01 36.01 L 17.01 36.01 L 17.01 30.02 L 20.01 30.02 L 20.01 23.01 L 0 23.01 L 0 30.02 L 3 30.02 L 3 36.01 L 0 36.01 L 0 43.02 L 7.01 43.02 L 7.01 40.02 Z" id="front_outsideCutPath" stroke="#FF0000" stroke-width="0.1" style="stroke:#FF0000;stroke-width:0.1" vector-effect="non-scaling-stroke"/><path d="M 30.02 40.02 L 36.01 40.02 L 36.01 43.02 L 40.02 43.02 L 40.02 36.02 L 43.02 36.02 L 43.02 30.01 L 40.02 30.01 L 40.02 23.01 L 26.01 23.01 L 26.01 30.01 L 23.01 30.01 L 23.01 36.02 L 26.01 36.02 L 26.01 43.02 L 30.02 43.02 L 30.02 40.02 Z" id="left_outsideCutPath" stroke="#FF0000" stroke-width="0.1" style="stroke:#FF0000;stroke-width:0.1" vector-effect="non-scaling-stroke"/><path d="M 7.01 17.01 L 13 17.01 L 13 20.01 L 20.01 20.01 L 20.01 13 L 17.01 13 L 17.01 7.01 L 20.01 7.01 L 20.01 0 L 0 0 L 0 7.01 L 3 7.01 L 3 13 L 0 13 L 0 20.01 L 7.01 20.01 L 7.01 17.01 Z" id="back_outsideCutPath" stroke="#FF0000" stroke-width="0.1" style="stroke:#FF0000;stroke-width:0.1" vector-effect="non-scaling-stroke"/><path d="M 30.02 17.01 L 36.01 17.01 L 36.01 20.01 L 40.02 20.01 L 40.02 13.01 L 43.02 13.01 L 43.02 7 L 40.02 7 L 40.02 0 L 26.01 0 L 26.01 7 L 23.01 7 L 23.01 13.01 L 26.01 13.01 L 26.01 20.01 L 30.02 20.01 L 30.02 17.01 Z" id="right_outsideCutPath" stroke="#FF0000" stroke-width="0.1" style="stroke:#FF0000;stroke-width:0.1" vector-effect="non-scaling-stroke"/><path d="M 59.03 40.02 L 63.03 40.02 L 63.03 36.02 L 66.03 36.02 L 66.03 30.01 L 63.03 30.01 L 63.03 26.01 L 59.03 26.01 L 59.03 23.01 L 53.02 23.01 L 53.02 26.01 L 49.02 26.01 L 49.02 30.01 L 46.02 30.01 L 46.02 36.02 L 49.02 36.02 L 49.02 40.02 L 53.02 40.02 L 53.02 43.02 L 59.03 43.02 L 59.03 40.02 Z" id="bottom_outsideCutPath" stroke="#FF0000" stroke-width="0.1" style="stroke:#FF0000;stroke-width:0.1" vector-effect="non-scaling-stroke"/></g></svg>