<svg width="66.06mm" height="43.04mm" viewBox="0 0 66.06 43.04" xmlns="http://www.w3.org/2000/svg" version="1.1" preserveAspectRatio="xMidYMid meet"><g id="svgGroup" stroke-linecap="round" fill-rule="evenodd" font-size="9pt" stroke="#000" stroke-width="0.25mm" fill="none" style="stroke:#000;stroke-width:0.25mm;fill:none"><path d="M 7.02 40.04 L 13 40.04 L 13 43.04 L 20.02 43.04 L 20.02 36.02 L 17.02 36.02 L 17.02 30.04 L 20.02 30.04 L 20.02 23.02 L 0 23.02 L 0 30.04 L 3 30.04 L 3 36.02 L 0 36.02 L 0 43.04 L 7.02 43.04 L 7.02 40.04 Z" id="front_outsideCutPath" stroke="#FF0000" stroke-width="0.1" style="stroke:#FF0000;stroke-width:0.1" vector-effect="non-scaling-stroke"/><path d="M 30.04 40.04 L 36.02 40.04 L 36.02 43.04 L 40.04 43.04 L 40.04 36.04 L 43.04 36.04 L 43.04 30.02 L 40.04 30.02 L 40.04 23.02 L 26.02 23.02 L 26.02 30.02 L 23.02 30.02 L 23.02 36.04 L 26.02 36.04 L 26.02 43.04 L 30.04 43.04 L 30.04 40.04 Z" id="left_outsideCutPath" stroke="#FF0000" stroke-width="0.1" style="stroke:#FF0000;stroke-width:0.1" vector-effect="non-scaling-stroke"/><path d="M 7.02 17.02 L 13 17.02 L 13 20.02 L 20.02 20.02 L 20.02 13 L 17.02 13 L 17.02 7.02 L 20.02 7.02 L 20.02 0 L 0 0 L 0 7.02 L 3 7.02 L 3 13 L 0 13 L 0 20.02 L 7.02 20.02 L 7.02 17.02 Z" id="back_outsideCutPath" stroke="#FF0000" stroke-width="0.1" style="stroke:#FF0000;stroke-width:0.1" vector-effect="non-scaling-stroke"/><path d="M 30.04 17.02 L 36.02 17.02 L 36.02 20.02 L 40.04 20.02 L 40.04 13.02 L 43.04 13.02 L 43.04 7 L 40.04 7 L 40.04 0 L 26.02 0 L 26.02 7 L 23.02 7 L 23.02 13.02 L 26.02 13.02 L 26.02 20.02 L 30.04 20.02 L 30.04 17.02 Z" id="right_outsideCutPath" stroke="#FF0000" stroke-width="0.1" style="stroke:#FF0000;stroke-width:0.1" vector-effect="non-scaling-stroke"/><path d="M 59.06 40.04 L 63.06 40.04 L 63.06 36.04 L 66.06 36.04 L 66.06 30.02 L 63.06 30.02 L 63.06 26.02 L 59.06 26.02 L 59.06 23.02 L 53.04 23.02 L 53.04 26.02 L 49.04 26.02 L 49.04 30.02 L 46.04 30.02 L 46.04 36.04 L 49.04 36.04 L 49.04 40.04 L 53.04 40.04 L 53.04 43.04 L 59.06 43.04 L 59.06 40.04 Z" id="bottom_outsideCutPath" stroke="#FF0000" stroke-width="0.1" style="stroke:#FF0000;stroke-width:0.1" vector-effect="non-scaling-stroke"/></g></svg>