<svg width="66.12mm" height="43.08mm" viewBox="0 0 66.12 43.08" xmlns="http://www.w3.org/2000/svg" version="1.1" preserveAspectRatio="xMidYMid meet"><g id="svgGroup" stroke-linecap="round" fill-rule="evenodd" font-size="9pt" stroke="#000" stroke-width="0.25mm" fill="none" style="stroke:#000;stroke-width:0.25mm;fill:none"><path d="M 7.04 40.08 L 13 40.08 L 13 43.08 L 20.04 43.08 L 20.04 36.04 L 17.04 36.04 L 17.04 30.08 L 20.04 30.08 L 20.04 23.04 L 0 23.04 L 0 30.08 L 3 30.08 L 3 36.04 L 0 36.04 L 0 43.08 L 7.04 43.08 L 7.04 40.08 Z" id="front_outsideCutPath" stroke="#FF0000" stroke-width="0.1" style="stroke:#FF0000;stroke-width:0.1" vector-effect="non-scaling-stroke"/><path d="M 30.08 40.08 L 36.04 40.08 L 36.04 43.08 L 40.08 43.08 L 40.08 36.08 L 43.08 36.08 L 43.08 30.04 L 40.08 30.04 L 40.08 23.04 L 26.04 23.04 L 26.04 30.04 L 23.04 30.04 L 23.04 36.08 L 26.04 36.08 L 26.04 43.08 L 30.08 43.08 L 30.08 40.08 Z" id="left_outsideCutPath" stroke="#FF0000" stroke-width="0.1" style="stroke:#FF0000;stroke-width:0.1" vector-effect="non-scaling-stroke"/><path d="M 7.04 17.04 L 13 17.04 L 13 20.04 L 20.04 20.04 L 20.04 13 L 17.04 13 L 17.04 7.04 L 20.04 7.04 L 20.04 0 L 0 0 L 0 7.04 L 3 7.04 L 3 13 L 0 13 L 0 20.04 L 7.04 20.04 L 7.04 17.04 Z" id="back_outsideCutPath" stroke="#FF0000" stroke-width="0.1" style="stroke:#FF0000;stroke-width:0.1" vector-effect="non-scaling-stroke"/><path d="M 30.08 17.04 L 36.04 17.04 L 36.04 20.04 L 40.08 20.04 L 40.08 13.04 L 43.08 13.04 L 43.08 7 L 40.08 7 L 40.08 0 L 26.04 0 L 26.04 7 L 23.04 7 L 23.04 13.04 L 26.04 13.04 L 26.04 20.04 L 30.08 20.04 L 30.08 17.04 Z" id="right_outsideCutPath" stroke="#FF0000" stroke-width="0.1" style="stroke:#FF0000;stroke-width:0.1" vector-effect="non-scaling-stroke"/><path d="M 59.12 40.08 L 63.12 40.08 L 63.12 36.08 L 66.12 36.08 L 66.12 30.04 L 63.12 30.04 L 63.12 26.04 L 59.12 26.04 L 59.12 23.04 L 53.08 23.04 L 53.08 26.04 L 49.08 26.04 L 49.08 30.04 L 46.08 30.04 L 46.08 36.08 L 49.08 36.08 L 49.08 40.08 L 53.08 40.08 L 53.08 43.08 L 59.12 43.08 L 59.12 40.08 Z" id="bottom_outsideCutPath" stroke="#FF0000" stroke-width="0.1" style="stroke:#FF0000;stroke-width:0.1" vector-effect="non-scaling-stroke"/></g></svg>