<svg width="66.18mm" height="43.12mm" viewBox="0 0 66.18 43.12" xmlns="http://www.w3.org/2000/svg" version="1.1" preserveAspectRatio="xMidYMid meet"><g id="svgGroup" stroke-linecap="round" fill-rule="evenodd" font-size="9pt" stroke="#000" stroke-width="0.25mm" fill="none" style="stroke:#000;stroke-width:0.25mm;fill:none"><path d="M 7.06 40.12 L 13 40.12 L 13 43.12 L 20.06 43.12 L 20.06 36.06 L 17.06 36.06 L 17.06 30.12 L 20.06 30.12 L 20.06 23.06 L 0 23.06 L 0 30.12 L 3 30.12 L 3 36.06 L 0 36.06 L 0 43.12 L 7.06 43.12 L 7.06 40.12 Z" id="front_outsideCutPath" stroke="#FF0000" stroke-width="0.1" style="stroke:#FF0000;stroke-width:0.1" vector-effect="non-scaling-stroke"/><path d="M 30.12 40.12 L 36.06 40.12 L 36.06 43.12 L 40.12 43.12 L 40.12 36.12 L 43.12 36.12 L 43.12 30.06 L 40.12 30.06 L 40.12 23.06 L 26.06 23.06 L 26.06 30.06 L 23.06 30.06 L 23.06 36.12 L 26.06 36.12 L 26.06 43.12 L 30.12 43.12 L 30.12 40.12 Z" id="left_outsideCutPath" stroke="#FF0000" stroke-width="0.1" style="stroke:#FF0000;stroke-width:0.1" vector-effect="non-scaling-stroke"/><path d="M 7.06 17.06 L 13 17.06 L 13 20.06 L 20.06 20.06 L 20.06 13 L 17.06 13 L 17.06 7.06 L 20.06 7.06 L 20.06 0 L 0 0 L 0 7.06 L 3 7.06 L 3 13 L 0 13 L 0 20.06 L 7.06 20.06 L 7.06 17.06 Z" id="back_outsideCutPath" stroke="#FF0000" stroke-width="0.1" style="stroke:#FF0000;stroke-width:0.1" vector-effect="non-scaling-stroke"/><path d="M 30.12 17.06 L 36.06 17.06 L 36.06 20.06 L 40.12 20.06 L 40.12 13.06 L 43.12 13.06 L 43.12 7 L 40.12 7 L 40.12 0 L 26.06 0 L 26.06 7 L 23.06 7 L 23.06 13.06 L 26.06 13.06 L 26.06 20.06 L 30.12 20.06 L 30.12 17.06 Z" id="right_outsideCutPath" stroke="#FF0000" stroke-width="0.1" style="stroke:#FF0000;stroke-width:0.1" vector-effect="non-scaling-stroke"/><path d="M 59.18 40.12 L 63.18 40.12 L 63.18 36.12 L 66.18 36.12 L 66.18 30.06 L 63.18 30.06 L 63.18 26.06 L 59.18 26.06 L 59.18 23.06 L 53.12 23.06 L 53.12 26.06 L 49.12 26.06 L 49.12 30.06 L 46.12 30.06 L 46.12 36.12 L 49.12 36.12 L 49.12 40.12 L 53.12 40.12 L 53.12 43.12 L 59.18 43.12 L 59.18 40.12 Z" id="bottom_outsideCutPath" stroke="#FF0000" stroke-width="0.1" style="stroke:#FF0000;stroke-width:0.1" vector-effect="non-scaling-stroke"/></g></svg>