<svg width="66.24mm" height="43.16mm" viewBox="0 0 66.24 43.16" xmlns="http://www.w3.org/2000/svg" version="1.1" preserveAspectRatio="xMidYMid meet"><g id="svgGroup" stroke-linecap="round" fill-rule="evenodd" font-size="9pt" stroke="#000" stroke-width="0.25mm" fill="none" style="stroke:#000;stroke-width:0.25mm;fill:none"><path d="M 7.08 40.16 L 13 40.16 L 13 43.16 L 20.08 43.16 L 20.08 36.08 L 17.08 36.08 L 17.08 30.16 L 20.08 30.16 L 20.08 23.08 L 0 23.08 L 0 30.16 L 3 30.16 L 3 36.08 L 0 36.08 L 0 43.16 L 7.08 43.16 L 7.08 40.16 Z" id="front_outsideCutPath" stroke="#FF0000" stroke-width="0.1" style="stroke:#FF0000;stroke-width:0.1" vector-effect="non-scaling-stroke"/><path d="M 30.16 40.16 L 36.08 40.16 L 36.08 43.16 L 40.16 43.16 L 40.16 36.16 L 43.16 36.16 L 43.16 30.08 L 40.16 30.08 L 40.16 23.08 L 26.08 23.08 L 26.08 30.08 L 23.08 30.08 L 23.08 36.16 L 26.08 36.16 L 26.08 43.16 L 30.16 43.16 L 30.16 40.16 Z" id="left_outsideCutPath" stroke="#FF0000" stroke-width="0.1" style="stroke:#FF0000;stroke-width:0.1" vector-effect="non-scaling-stroke"/><path d="M 7.08 17.08 L 13 17.08 L 13 20.08 L 20.08 20.08 L 20.08 13 L 17.08 13 L 17.08 7.08 L 20.08 7.08 L 20.08 0 L 0 0 L 0 7.08 L 3 7.08 L 3 13 L 0 13 L 0 20.08 L 7.08 20.08 L 7.08 17.08 Z" id="back_outsideCutPath" stroke="#FF0000" stroke-width="0.1" style="stroke:#FF0000;stroke-width:0.1" vector-effect="non-scaling-stroke"/><path d="M 30.16 17.08 L 36.08 17.08 L 36.08 20.08 L 40.16 20.08 L 40.16 13.08 L 43.16 13.08 L 43.16 7 L 40.16 7 L 40.16 0 L 26.08 0 L 26.08 7 L 23.08 7 L 23.08 13.08 L 26.08 13.08 L 26.08 20.08 L 30.16 20.08 L 30.16 17.08 Z" id="right_outsideCutPath" stroke="#FF0000" stroke-width="0.1" style="stroke:#FF0000;stroke-width:0.1" vector-effect="non-scaling-stroke"/><path d="M 59.24 40.16 L 63.24 40.16 L 63.24 36.16 L 66.24 36.16 L 66.24 30.08 L 63.24 30.08 L 63.24 26.08 L 59.24 26.08 L 59.24 23.08 L 53.16 23.08 L 53.16 26.08 L 49.16 26.08 L 49.16 30.08 L 46.16 30.08 L 46.16 36.16 L 49.16 36.16 L 49.16 40.16 L 53.16 40.16 L 53.16 43.16 L 59.24 43.16 L 59.24 40.16 Z" id="bottom_outsideCutPath" stroke="#FF0000" stroke-width="0.1" style="stroke:#FF0000;stroke-width:0.1" vector-effect="non-scaling-stroke"/></g></svg>