<svg width="66.3mm" height="43.2mm" viewBox="0 0 66.3 43.2" xmlns="http://www.w3.org/2000/svg" version="1.1" preserveAspectRatio="xMidYMid meet"><g id="svgGroup" stroke-linecap="round" fill-rule="evenodd" font-size="9pt" stroke="#000" stroke-width="0.25mm" fill="none" style="stroke:#000;stroke-width:0.25mm;fill:none"><path d="M 7.1 40.2 L 13 40.2 L 13 43.2 L 20.1 43.2 L 20.1 36.1 L 17.1 36.1 L 17.1 30.2 L 20.1 30.2 L 20.1 23.1 L 0 23.1 L 0 30.2 L 3 30.2 L 3 36.1 L 0 36.1 L 0 43.2 L 7.1 43.2 L 7.1 40.2 Z" id="front_outsideCutPath" stroke="#FF0000" stroke-width="0.1" style="stroke:#FF0000;stroke-width:0.1" vector-effect="non-scaling-stroke"/><path d="M 30.2 40.2 L 36.1 40.2 L 36.1 43.2 L 40.2 43.2 L 40.2 36.2 L 43.2 36.2 L 43.2 30.1 L 40.2 30.1 L 40.2 23.1 L 26.1 23.1 L 26.1 30.1 L 23.1 30.1 L 23.1 36.2 L 26.1 36.2 L 26.1 43.2 L 30.2 43.2 L 30.2 40.2 Z" id="left_outsideCutPath" stroke="#FF0000" stroke-width="0.1" style="stroke:#FF0000;stroke-width:0.1" vector-effect="non-scaling-stroke"/><path d="M 7.1 17.1 L 13 17.1 L 13 20.1 L 20.1 20.1 L 20.1 13 L 17.1 13 L 17.1 7.1 L 20.1 7.1 L 20.1 0 L 0 0 L 0 7.1 L 3 7.1 L 3 13 L 0 13 L 0 20.1 L 7.1 20.1 L 7.1 17.1 Z" id="back_outsideCutPath" stroke="#FF0000" stroke-width="0.1" style="stroke:#FF0000;stroke-width:0.1" vector-effect="non-scaling-stroke"/><path d="M 30.2 17.1 L 36.1 17.1 L 36.1 20.1 L 40.2 20.1 L 40.2 13.1 L 43.2 13.1 L 43.2 7 L 40.2 7 L 40.2 0 L 26.1 0 L 26.1 7 L 23.1 7 L 23.1 13.1 L 26.1 13.1 L 26.1 20.1 L 30.2 20.1 L 30.2 17.1 Z" id="right_outsideCutPath" stroke="#FF0000" stroke-width="0.1" style="stroke:#FF0000;stroke-width:0.1" vector-effect="non-scaling-stroke"/><path d="M 59.3 40.2 L 63.3 40.2 L 63.3 36.2 L 66.3 36.2 L 66.3 30.1 L 63.3 30.1 L 63.3 26.1 L 59.3 26.1 L 59.3 23.1 L 53.2 23.1 L 53.2 26.1 L 49.2 26.1 L 49.2 30.1 L 46.2 30.1 L 46.2 36.2 L 49.2 36.2 L 49.2 40.2 L 53.2 40.2 L 53.2 43.2 L 59.3 43.2 L 59.3 40.2 Z" id="bottom_outsideCutPath" stroke="#FF0000" stroke-width="0.1" style="stroke:#FF0000;stroke-width:0.1" vector-effect="non-scaling-stroke"/></g></svg>