<svg width="66.36mm" height="43.24mm" viewBox="0 0 66.36 43.24" xmlns="http://www.w3.org/2000/svg" version="1.1" preserveAspectRatio="xMidYMid meet"><g id="svgGroup" stroke-linecap="round" fill-rule="evenodd" font-size="9pt" stroke="#000" stroke-width="0.25mm" fill="none" style="stroke:#000;stroke-width:0.25mm;fill:none"><path d="M 7.12 40.24 L 13 40.24 L 13 43.24 L 20.12 43.24 L 20.12 36.12 L 17.12 36.12 L 17.12 30.24 L 20.12 30.24 L 20.12 23.12 L 0 23.12 L 0 30.24 L 3 30.24 L 3 36.12 L 0 36.12 L 0 43.24 L 7.12 43.24 L 7.12 40.24 Z" id="front_outsideCutPath" stroke="#FF0000" stroke-width="0.1" style="stroke:#FF0000;stroke-width:0.1" vector-effect="non-scaling-stroke"/><path d="M 30.24 40.24 L 36.12 40.24 L 36.12 43.24 L 40.24 43.24 L 40.24 36.24 L 43.24 36.24 L 43.24 30.12 L 40.24 30.12 L 40.24 23.12 L 26.12 23.12 L 26.12 30.12 L 23.12 30.12 L 23.12 36.24 L 26.12 36.24 L 26.12 43.24 L 30.24 43.24 L 30.24 40.24 Z" id="left_outsideCutPath" stroke="#FF0000" stroke-width="0.1" style="stroke:#FF0000;stroke-width:0.1" vector-effect="non-scaling-stroke"/><path d="M 7.12 17.12 L 13 17.12 L 13 20.12 L 20.12 20.12 L 20.12 13 L 17.12 13 L 17.12 7.12 L 20.12 7.12 L 20.12 0 L 0 0 L 0 7.12 L 3 7.12 L 3 13 L 0 13 L 0 20.12 L 7.12 20.12 L 7.12 17.12 Z" id="back_outsideCutPath" stroke="#FF0000" stroke-width="0.1" style="stroke:#FF0000;stroke-width:0.1" vector-effect="non-scaling-stroke"/><path d="M 30.24 17.12 L 36.12 17.12 L 36.12 20.12 L 40.24 20.12 L 40.24 13.12 L 43.24 13.12 L 43.24 7 L 40.24 7 L 40.24 0 L 26.12 0 L 26.12 7 L 23.12 7 L 23.12 13.12 L 26.12 13.12 L 26.12 20.12 L 30.24 20.12 L 30.24 17.12 Z" id="right_outsideCutPath" stroke="#FF0000" stroke-width="0.1" style="stroke:#FF0000;stroke-width:0.1" vector-effect="non-scaling-stroke"/><path d="M 59.36 40.24 L 63.36 40.24 L 63.36 36.24 L 66.36 36.24 L 66.36 30.12 L 63.36 30.12 L 63.36 26.12 L 59.36 26.12 L 59.36 23.12 L 53.24 23.12 L 53.24 26.12 L 49.24 26.12 L 49.24 30.12 L 46.24 30.12 L 46.24 36.24 L 49.24 36.24 L 49.24 40.24 L 53.24 40.24 L 53.24 43.24 L 59.36 43.24 L 59.36 40.24 Z" id="bottom_outsideCutPath" stroke="#FF0000" stroke-width="0.1" style="stroke:#FF0000;stroke-width:0.1" vector-effect="non-scaling-stroke"/></g></svg>