<svg width="66.42mm" height="43.28mm" viewBox="0 0 66.42 43.28" xmlns="http://www.w3.org/2000/svg" version="1.1" preserveAspectRatio="xMidYMid meet"><g id="svgGroup" stroke-linecap="round" fill-rule="evenodd" font-size="9pt" stroke="#000" stroke-width="0.25mm" fill="none" style="stroke:#000;stroke-width:0.25mm;fill:none"><path d="M 7.14 40.28 L 13 40.28 L 13 43.28 L 20.14 43.28 L 20.14 36.14 L 17.14 36.14 L 17.14 30.28 L 20.14 30.28 L 20.14 23.14 L 0 23.14 L 0 30.28 L 3 30.28 L 3 36.14 L 0 36.14 L 0 43.28 L 7.14 43.28 L 7.14 40.28 Z" id="front_outsideCutPath" stroke="#FF0000" stroke-width="0.1" style="stroke:#FF0000;stroke-width:0.1" vector-effect="non-scaling-stroke"/><path d="M 30.28 40.28 L 36.14 40.28 L 36.14 43.28 L 40.28 43.28 L 40.28 36.28 L 43.28 36.28 L 43.28 30.14 L 40.28 30.14 L 40.28 23.14 L 26.14 23.14 L 26.14 30.14 L 23.14 30.14 L 23.14 36.28 L 26.14 36.28 L 26.14 43.28 L 30.28 43.28 L 30.28 40.28 Z" id="left_outsideCutPath" stroke="#FF0000" stroke-width="0.1" style="stroke:#FF0000;stroke-width:0.1" vector-effect="non-scaling-stroke"/><path d="M 7.14 17.14 L 13 17.14 L 13 20.14 L 20.14 20.14 L 20.14 13 L 17.14 13 L 17.14 7.14 L 20.14 7.14 L 20.14 0 L 0 0 L 0 7.14 L 3 7.14 L 3 13 L 0 13 L 0 20.14 L 7.14 20.14 L 7.14 17.14 Z" id="back_outsideCutPath" stroke="#FF0000" stroke-width="0.1" style="stroke:#FF0000;stroke-width:0.1" vector-effect="non-scaling-stroke"/><path d="M 30.28 17.14 L 36.14 17.14 L 36.14 20.14 L 40.28 20.14 L 40.28 13.14 L 43.28 13.14 L 43.28 7 L 40.28 7 L 40.28 0 L 26.14 0 L 26.14 7 L 23.14 7 L 23.14 13.14 L 26.14 13.14 L 26.14 20.14 L 30.28 20.14 L 30.28 17.14 Z" id="right_outsideCutPath" stroke="#FF0000" stroke-width="0.1" style="stroke:#FF0000;stroke-width:0.1" vector-effect="non-scaling-stroke"/><path d="M 59.42 40.28 L 63.42 40.28 L 63.42 36.28 L 66.42 36.28 L 66.42 30.14 L 63.42 30.14 L 63.42 26.14 L 59.42 26.14 L 59.42 23.14 L 53.28 23.14 L 53.28 26.14 L 49.28 26.14 L 49.28 30.14 L 46.28 30.14 L 46.28 36.28 L 49.28 36.28 L 49.28 40.28 L 53.28 40.28 L 53.28 43.28 L 59.42 43.28 L 59.42 40.28 Z" id="bottom_outsideCutPath" stroke="#FF0000" stroke-width="0.1" style="stroke:#FF0000;stroke-width:0.1" vector-effect="non-scaling-stroke"/></g></svg>