<svg width="66.48mm" height="43.32mm" viewBox="0 0 66.48 43.32" xmlns="http://www.w3.org/2000/svg" version="1.1" preserveAspectRatio="xMidYMid meet"><g id="svgGroup" stroke-linecap="round" fill-rule="evenodd" font-size="9pt" stroke="#000" stroke-width="0.25mm" fill="none" style="stroke:#000;stroke-width:0.25mm;fill:none"><path d="M 7.16 40.32 L 13 40.32 L 13 43.32 L 20.16 43.32 L 20.16 36.16 L 17.16 36.16 L 17.16 30.32 L 20.16 30.32 L 20.16 23.16 L 0 23.16 L 0 30.32 L 3 30.32 L 3 36.16 L 0 36.16 L 0 43.32 L 7.16 43.32 L 7.16 40.32 Z" id="front_outsideCutPath" stroke="#FF0000" stroke-width="0.1" style="stroke:#FF0000;stroke-width:0.1" vector-effect="non-scaling-stroke"/><path d="M 30.32 40.32 L 36.16 40.32 L 36.16 43.32 L 40.32 43.32 L 40.32 36.32 L 43.32 36.32 L 43.32 30.16 L 40.32 30.16 L 40.32 23.16 L 26.16 23.16 L 26.16 30.16 L 23.16 30.16 L 23.16 36.32 L 26.16 36.32 L 26.16 43.32 L 30.32 43.32 L 30.32 40.32 Z" id="left_outsideCutPath" stroke="#FF0000" stroke-width="0.1" style="stroke:#FF0000;stroke-width:0.1" vector-effect="non-scaling-stroke"/><path d="M 7.16 17.16 L 13 17.16 L 13 20.16 L 20.16 20.16 L 20.16 13 L 17.16 13 L 17.16 7.16 L 20.16 7.16 L 20.16 0 L 0 0 L 0 7.16 L 3 7.16 L 3 13 L 0 13 L 0 20.16 L 7.16 20.16 L 7.16 17.16 Z" id="back_outsideCutPath" stroke="#FF0000" stroke-width="0.1" style="stroke:#FF0000;stroke-width:0.1" vector-effect="non-scaling-stroke"/><path d="M 30.32 17.16 L 36.16 17.16 L 36.16 20.16 L 40.32 20.16 L 40.32 13.16 L 43.32 13.16 L 43.32 7 L 40.32 7 L 40.32 0 L 26.16 0 L 26.16 7 L 23.16 7 L 23.16 13.16 L 26.16 13.16 L 26.16 20.16 L 30.32 20.16 L 30.32 17.16 Z" id="right_outsideCutPath" stroke="#FF0000" stroke-width="0.1" style="stroke:#FF0000;stroke-width:0.1" vector-effect="non-scaling-stroke"/><path d="M 59.48 40.32 L 63.48 40.32 L 63.48 36.32 L 66.48 36.32 L 66.48 30.16 L 63.48 30.16 L 63.48 26.16 L 59.48 26.16 L 59.48 23.16 L 53.32 23.16 L 53.32 26.16 L 49.32 26.16 L 49.32 30.16 L 46.32 30.16 L 46.32 36.32 L 49.32 36.32 L 49.32 40.32 L 53.32 40.32 L 53.32 43.32 L 59.48 43.32 L 59.48 40.32 Z" id="bottom_outsideCutPath" stroke="#FF0000" stroke-width="0.1" style="stroke:#FF0000;stroke-width:0.1" vector-effect="non-scaling-stroke"/></g></svg>