<svg width="66.54mm" height="43.36mm" viewBox="0 0 66.54 43.36" xmlns="http://www.w3.org/2000/svg" version="1.1" preserveAspectRatio="xMidYMid meet"><g id="svgGroup" stroke-linecap="round" fill-rule="evenodd" font-size="9pt" stroke="#000" stroke-width="0.25mm" fill="none" style="stroke:#000;stroke-width:0.25mm;fill:none"><path d="M 7.18 40.36 L 13 40.36 L 13 43.36 L 20.18 43.36 L 20.18 36.18 L 17.18 36.18 L 17.18 30.36 L 20.18 30.36 L 20.18 23.18 L 0 23.18 L 0 30.36 L 3 30.36 L 3 36.18 L 0 36.18 L 0 43.36 L 7.18 43.36 L 7.18 40.36 Z" id="front_outsideCutPath" stroke="#FF0000" stroke-width="0.1" style="stroke:#FF0000;stroke-width:0.1" vector-effect="non-scaling-stroke"/><path d="M 30.36 40.36 L 36.18 40.36 L 36.18 43.36 L 40.36 43.36 L 40.36 36.36 L 43.36 36.36 L 43.36 30.18 L 40.36 30.18 L 40.36 23.18 L 26.18 23.18 L 26.18 30.18 L 23.18 30.18 L 23.18 36.36 L 26.18 36.36 L 26.18 43.36 L 30.36 43.36 L 30.36 40.36 Z" id="left_outsideCutPath" stroke="#FF0000" stroke-width="0.1" style="stroke:#FF0000;stroke-width:0.1" vector-effect="non-scaling-stroke"/><path d="M 7.18 17.18 L 13 17.18 L 13 20.18 L 20.18 20.18 L 20.18 13 L 17.18 13 L 17.18 7.18 L 20.18 7.18 L 20.18 0 L 0 0 L 0 7.18 L 3 7.18 L 3 13 L 0 13 L 0 20.18 L 7.18 20.18 L 7.18 17.18 Z" id="back_outsideCutPath" stroke="#FF0000" stroke-width="0.1" style="stroke:#FF0000;stroke-width:0.1" vector-effect="non-scaling-stroke"/><path d="M 30.36 17.18 L 36.18 17.18 L 36.18 20.18 L 40.36 20.18 L 40.36 13.18 L 43.36 13.18 L 43.36 7 L 40.36 7 L 40.36 0 L 26.18 0 L 26.18 7 L 23.18 7 L 23.18 13.18 L 26.18 13.18 L 26.18 20.18 L 30.36 20.18 L 30.36 17.18 Z" id="right_outsideCutPath" stroke="#FF0000" stroke-width="0.1" style="stroke:#FF0000;stroke-width:0.1" vector-effect="non-scaling-stroke"/><path d="M 59.54 40.36 L 63.54 40.36 L 63.54 36.36 L 66.54 36.36 L 66.54 30.18 L 63.54 30.18 L 63.54 26.18 L 59.54 26.18 L 59.54 23.18 L 53.36 23.18 L 53.36 26.18 L 49.36 26.18 L 49.36 30.18 L 46.36 30.18 L 46.36 36.36 L 49.36 36.36 L 49.36 40.36 L 53.36 40.36 L 53.36 43.36 L 59.54 43.36 L 59.54 40.36 Z" id="bottom_outsideCutPath" stroke="#FF0000" stroke-width="0.1" style="stroke:#FF0000;stroke-width:0.1" vector-effect="non-scaling-stroke"/></g></svg>