<svg width="66.6mm" height="43.4mm" viewBox="0 0 66.6 43.4" xmlns="http://www.w3.org/2000/svg" version="1.1" preserveAspectRatio="xMidYMid meet"><g id="svgGroup" stroke-linecap="round" fill-rule="evenodd" font-size="9pt" stroke="#000" stroke-width="0.25mm" fill="none" style="stroke:#000;stroke-width:0.25mm;fill:none"><path d="M 7.2 40.4 L 13 40.4 L 13 43.4 L 20.2 43.4 L 20.2 36.2 L 17.2 36.2 L 17.2 30.4 L 20.2 30.4 L 20.2 23.2 L 0 23.2 L 0 30.4 L 3 30.4 L 3 36.2 L 0 36.2 L 0 43.4 L 7.2 43.4 L 7.2 40.4 Z" id="front_outsideCutPath" stroke="#FF0000" stroke-width="0.1" style="stroke:#FF0000;stroke-width:0.1" vector-effect="non-scaling-stroke"/><path d="M 30.4 40.4 L 36.2 40.4 L 36.2 43.4 L 40.4 43.4 L 40.4 36.4 L 43.4 36.4 L 43.4 30.2 L 40.4 30.2 L 40.4 23.2 L 26.2 23.2 L 26.2 30.2 L 23.2 30.2 L 23.2 36.4 L 26.2 36.4 L 26.2 43.4 L 30.4 43.4 L 30.4 40.4 Z" id="left_outsideCutPath" stroke="#FF0000" stroke-width="0.1" style="stroke:#FF0000;stroke-width:0.1" vector-effect="non-scaling-stroke"/><path d="M 7.2 17.2 L 13 17.2 L 13 20.2 L 20.2 20.2 L 20.2 13 L 17.2 13 L 17.2 7.2 L 20.2 7.2 L 20.2 0 L 0 0 L 0 7.2 L 3 7.2 L 3 13 L 0 13 L 0 20.2 L 7.2 20.2 L 7.2 17.2 Z" id="back_outsideCutPath" stroke="#FF0000" stroke-width="0.1" style="stroke:#FF0000;stroke-width:0.1" vector-effect="non-scaling-stroke"/><path d="M 30.4 17.2 L 36.2 17.2 L 36.2 20.2 L 40.4 20.2 L 40.4 13.2 L 43.4 13.2 L 43.4 7 L 40.4 7 L 40.4 0 L 26.2 0 L 26.2 7 L 23.2 7 L 23.2 13.2 L 26.2 13.2 L 26.2 20.2 L 30.4 20.2 L 30.4 17.2 Z" id="right_outsideCutPath" stroke="#FF0000" stroke-width="0.1" style="stroke:#FF0000;stroke-width:0.1" vector-effect="non-scaling-stroke"/><path d="M 59.6 40.4 L 63.6 40.4 L 63.6 36.4 L 66.6 36.4 L 66.6 30.2 L 63.6 30.2 L 63.6 26.2 L 59.6 26.2 L 59.6 23.2 L 53.4 23.2 L 53.4 26.2 L 49.4 26.2 L 49.4 30.2 L 46.4 30.2 L 46.4 36.4 L 49.4 36.4 L 49.4 40.4 L 53.4 40.4 L 53.4 43.4 L 59.6 43.4 L 59.6 40.4 Z" id="bottom_outsideCutPath" stroke="#FF0000" stroke-width="0.1" style="stroke:#FF0000;stroke-width:0.1" vector-effect="non-scaling-stroke"/></g></svg>